<svg xmlns="http://www.w3.org/2000/svg" viewBox="0 0 37 37"><g transform="translate(-995.295 269.054)"><g transform="translate(996.295 -268.054)"><ellipse cx="17.5" cy="17.5" rx="17.5" ry="17.5" transform="translate(0 0)" fill="#78B143" stroke="#fff" stroke-width="2"/></g><g transform="translate(1002.436 -261.668)"><path d="M1014.032-238.739a11.25,11.25,0,0,1-11.237-11.237,11.249,11.249,0,0,1,11.237-11.237,11.25,11.25,0,0,1,11.237,11.237A11.251,11.251,0,0,1,1014.032-238.739Zm0-20.68a9.453,9.453,0,0,0-9.444,9.444,9.454,9.454,0,0,0,9.444,9.444,9.454,9.454,0,0,0,9.444-9.444A9.453,9.453,0,0,0,1014.032-259.419Z" transform="translate(-1002.795 261.212)" fill="#fff"/><path d="M1011.512-245.984a.926.926,0,0,1-.892-.95v-5.847a.924.924,0,0,1,.892-.95.924.924,0,0,1,.892.95v5.847A.926.926,0,0,1,1011.512-245.984Z" transform="translate(-1000.276 263.62)" fill="#fff"/><path d="M1011.546-254.563a1.03,1.03,0,0,1-1.028-1.028,1.028,1.028,0,0,1,1.028-1.028,1.028,1.028,0,0,1,1.028,1.028A1.029,1.029,0,0,1,1011.546-254.563Z" transform="translate(-1000.309 262.69)" fill="#fff"/></g></g></svg>