<svg xmlns="http://www.w3.org/2000/svg" xmlns:xlink="http://www.w3.org/1999/xlink" width="22.562" height="17.603" viewBox="0 0 22.562 17.603"><defs><clipPath id="a"><rect width="22.562" height="17.603" fill="none"/></clipPath></defs><g clip-path="url(#a)"><g transform="translate(-1136.085 267.625)"><path d="M1161.033-267.625h-13.658a.988.988,0,0,0-.982.974v2.259h6.891a2.051,2.051,0,0,1,2.033,2.052v5.665h1.639l2.276,2.722c.533.636.967.474.964-.357l-.01-2.365h.848a.944.944,0,0,0,.966-.94v-9.036A.973.973,0,0,0,1161.033-267.625Z" transform="translate(-3.353)" /><path d="M1149.441-260.272h-12.7a.67.67,0,0,0-.655.673v8.131a.64.64,0,0,0,.643.638h1.082v2.432c0,.83.445.979.976.341l2.312-2.772h8.344a.641.641,0,0,0,.655-.626V-259.6A.67.67,0,0,0,1149.441-260.272Z" transform="translate(0 -2.359)" /></g></g></svg>