<svg xmlns="http://www.w3.org/2000/svg" viewBox="0 0 23.662 18.175"><g transform="translate(-375.684 -652.785)"><path d="M377.676,661.769v-3.687h-.086a1.876,1.876,0,0,0-1.7.967,1.977,1.977,0,0,0-.208.877,2.018,2.018,0,0,0,.02.3,1.906,1.906,0,0,0,1.926,1.541Z" /><path d="M382.526,665.3h-3.308l1.237,4.495a1.566,1.566,0,0,0,1.515,1.162,1.586,1.586,0,0,0,1.288-.631,1.46,1.46,0,0,0,.253-1.362Z" /><path d="M397.024,657.734h-.2v4.545h.2a2.273,2.273,0,1,0,.1-4.545Z" /><path d="M377.652,658.294v3.589a1.716,1.716,0,0,0,1.717,1.667h4.6v-6.818h-4.6A1.643,1.643,0,0,0,377.652,658.294Z" /><path d="M385.722,663.647l9.343,3.737v-14.6l-9.343,3.737Z" /></g></svg>