<svg xmlns="http://www.w3.org/2000/svg" viewBox="0 0 21.1 23.815"><g transform="translate(-498.862 -415.845)"><g transform="translate(500.818 417.563)"><path d="M145.67,178.628a1.682,1.682,0,0,1,1.682-1.682h0a1.682,1.682,0,0,1,1.682,1.682v2.519c0,.555-.068,1.666-.13,2.564a6.993,6.993,0,0,1-3.244,5.5,6.138,6.138,0,0,1-3.229.939,7.906,7.906,0,0,1-5.832-2.541c-.292-.417-3.124-5.082-3.124-5.082l-2.691-4.291a2.491,2.491,0,0,1-.384-1.092c-.054-.6.106-1.324,1.228-1.268a2.666,2.666,0,0,1,1.009.269,7.477,7.477,0,0,1,2.914,2.6.019.019,0,0,0,.035-.01v-8.5a1.682,1.682,0,0,1,1.682-1.682h0a1.682,1.682,0,0,1,1.682,1.682v5.976" transform="translate(-130.391 -168.553)" fill="#fff" stroke="#002664" stroke-linecap="round" stroke-miterlimit="10" stroke-width="1"/><path d="M177.877,195.589a1.682,1.682,0,0,1,1.682-1.682h0a1.682,1.682,0,0,1,1.682,1.682v1.854" transform="translate(-165.953 -187.541)" fill="#fff" stroke="#002664" stroke-linecap="round" stroke-miterlimit="10" stroke-width="1"/><path d="M164.479,195.5v-2.9a1.682,1.682,0,0,1,1.682-1.682h0a1.682,1.682,0,0,1,1.682,1.682v2.1" transform="translate(-155.919 -185.297)" fill="#fff" stroke="#002664" stroke-linecap="round" stroke-miterlimit="10" stroke-width="1"/></g><g transform="translate(506.341 420.59) rotate(180)"><g transform="translate(4.539 0)"><path d="M0,0,2.233,2.233.074,4.391" fill="none" stroke="#002664" stroke-width="1"/></g><path d="M6.772,0H0" transform="translate(0 2.241)" fill="none" stroke="#002664" stroke-width="1"/></g><g transform="translate(508.947 416.199)"><g transform="translate(4.539 0)"><path d="M201.516,90.472l2.233,2.233-2.158,2.158" transform="translate(-201.516 -90.472)" fill="none" stroke="#002664" stroke-width="1"/></g><path d="M200.891,96.975h-6.772" transform="translate(-194.119 -94.734)" fill="none" stroke="#002664" stroke-width="1"/></g></g></svg>