<svg xmlns="http://www.w3.org/2000/svg" viewBox="0 0 8.856 15.478"><g transform="translate(0)"><g transform="translate(0)"><path d="M16,246.05a4.443,4.443,0,0,0-3.569-3.569,4.35,4.35,0,0,0-3.635.962,4.415,4.415,0,0,0-1.581,3.39,1.108,1.108,0,0,0,2.217,0,2.254,2.254,0,0,1,.782-1.7,2.21,2.21,0,1,1,2.1,3.8,2.609,2.609,0,0,0-1.793,2.526v1.418a1.108,1.108,0,1,0,2.217,0v-1.418a.421.421,0,0,1,.261-.407A4.393,4.393,0,0,0,16,246.05Z" transform="translate(-7.218 -242.405)" /><path d="M47.37,404.407a1.4,1.4,0,1,0,1.4,1.4A1.4,1.4,0,0,0,47.37,404.407Z" transform="translate(-42.936 -391.733)" /></g></g></svg>