<svg width="18" height="18" viewBox="0 0 18 18" xmlns="http://www.w3.org/2000/svg">
<path fill-rule="evenodd" clip-rule="evenodd" d="M9.76002 1.62498L11.83 5.55498L16.18 6.17498C16.82 6.24498 17.29 6.82498 17.22 7.47498C17.19 7.77498 17.04 8.05498 16.8 8.24498L13.49 11.345L14.32 15.695C14.46 16.345 14.06 16.985 13.41 17.125C13.08 17.195 12.73 17.125 12.46 16.935L8.53002 14.865L4.60002 16.935C3.77002 17.345 2.53002 16.725 2.74002 15.695L3.57002 11.345L0.440017 8.24498C-0.389983 7.41498 0.030017 6.17498 1.06002 6.17498L5.41002 5.55498L7.48002 1.62498C7.73002 0.994975 8.44002 0.684975 9.07002 0.934975C9.39002 1.05498 9.64002 1.30498 9.76002 1.62498Z"/>
</svg>
