<?xml version="1.0" encoding="utf-8"?>
<svg version="1.1" id="Layer_1" 
	xmlns="http://www.w3.org/2000/svg" 
	xmlns:xlink="http://www.w3.org/1999/xlink" x="0px" y="0px" viewBox="0 0 150 54.8" xml:space="preserve">
	<style type="text/css">
	.st0{fill:#FFFFFF;}
	</style>
	<g>
		<g>
			<path class="st0" d="M58.1,54.8c-0.3,0-0.5-0.2-0.5-0.5V4.8c0-0.3,0.2-0.5,0.5-0.5c0.3,0,0.5,0.2,0.5,0.5v49.6
			C58.6,54.6,58.3,54.8,58.1,54.8"/>
		</g>
		<path class="st0" d="M13.6,42.2l-8.2-9.6H2v15h3.4v-9.6l8.1,9.6H17v-15h-3.4V42.2z M45.9,32.6l-2.2,9.6l-2.3-9.6h-3.2l-2.4,9.5
		l-2.2-9.5H30l3.9,15h3.5l2.3-9.5l2.3,9.5h3.4l0-0.1l3.9-14.8H45.9z"/>
		<g>
			<path class="st0" d="M1.7,52.2L1.7,52.2c0-1.3,1-2.4,2.4-2.4c0.8,0,1.3,0.2,1.8,0.6L5.3,51C5,50.7,4.6,50.5,4,50.5
			c-0.9,0-1.5,0.7-1.5,1.6v0c0,1,0.6,1.7,1.6,1.7c0.4,0,0.8-0.1,1.1-0.4v-0.9H4v-0.7h2v1.9c-0.5,0.4-1.1,0.7-1.9,0.7
			C2.6,54.6,1.7,53.6,1.7,52.2"/>
			<path class="st0" d="M6.5,52.2L6.5,52.2c0-1.3,1-2.4,2.4-2.4c1.4,0,2.4,1.1,2.4,2.4v0c0,1.3-1,2.4-2.4,2.4
			C7.5,54.6,6.5,53.5,6.5,52.2 M10.5,52.2L10.5,52.2c0-0.9-0.7-1.7-1.6-1.7c-0.9,0-1.6,0.7-1.6,1.6v0c0,0.9,0.7,1.6,1.6,1.6
			C9.8,53.8,10.5,53.1,10.5,52.2"/>
		</g>
		<polygon class="st0" points="11.3,49.9 12.2,49.9 13.6,53.4 15,49.9 15.8,49.9 13.9,54.5 13.2,54.5 	"/>
		<polygon class="st0" points="16.4,49.9 19.8,49.9 19.8,50.6 17.2,50.6 17.2,51.8 19.5,51.8 19.5,52.5 17.2,52.5 17.2,53.8 
		19.9,53.8 19.9,54.5 16.4,54.5 	"/>
		<g>
			<path class="st0" d="M20.7,49.9h2.1c0.6,0,1,0.2,1.3,0.5c0.2,0.3,0.4,0.6,0.4,1v0c0,0.8-0.5,1.2-1.1,1.4l1.3,1.8h-1l-1.1-1.6h-1
			v1.6h-0.8V49.9z M22.7,52.2c0.6,0,1-0.3,1-0.8v0c0-0.5-0.4-0.8-1-0.8h-1.2v1.6H22.7z"/>
		</g>
		<polygon class="st0" points="25.2,49.9 25.9,49.9 28.4,53.1 28.4,49.9 29.2,49.9 29.2,54.5 28.5,54.5 26,51.2 26,54.5 25.2,54.5 	
		"/>
		<polygon class="st0" points="30,49.9 30.9,49.9 32.3,52.1 33.7,49.9 34.6,49.9 34.6,54.5 33.8,54.5 33.8,51.2 32.3,53.4 32.3,53.4 
		30.8,51.2 30.8,54.5 30,54.5 	"/>
		<polygon class="st0" points="35.4,49.9 38.8,49.9 38.8,50.6 36.2,50.6 36.2,51.8 38.5,51.8 38.5,52.5 36.2,52.5 36.2,53.8 
		38.8,53.8 38.8,54.5 35.4,54.5 	"/>
		<polygon class="st0" points="39.6,49.9 40.4,49.9 42.9,53.1 42.9,49.9 43.7,49.9 43.7,54.5 43,54.5 40.4,51.2 40.4,54.5 39.6,54.5 
			"/>
		<polygon class="st0" points="45.8,50.6 44.3,50.6 44.3,49.9 48.1,49.9 48.1,50.6 46.6,50.6 46.6,54.5 45.8,54.5 	"/>
		<g>
			<path class="st0" d="M17.9,45.5l2-2.4c1.4,1.1,2.8,1.8,4.5,1.8c1.4,0,2.2-0.5,2.2-1.4v0c0-0.9-0.5-1.3-3.1-1.9
			c-3.1-0.8-5-1.6-5-4.7v0c0-2.8,2.2-4.6,5.3-4.6c2.2,0,4.1,0.7,5.7,1.9l-1.7,2.5c-1.4-0.9-2.7-1.5-4-1.5c-1.3,0-2,0.6-2,1.3v0
			c0,1,0.7,1.3,3.3,2c3.1,0.8,4.8,1.9,4.8,4.6v0c0,3-2.3,4.7-5.6,4.7C22.1,48,19.7,47.2,17.9,45.5"/>
			<path class="st0" d="M10,4.2c-0.3,0-0.5,0.2-0.6,0.6c0,0-0.1,0.5-0.2,1.5C9.2,7.1,9.1,8.4,9.1,10c0,3.6,0.5,8.7,2.7,12.7
			c1.7,3,4.2,4.7,6.9,4.8c-1.1-0.8-2.3-2.2-3-4.2c-0.6-2-1-4.3-1-7c0-3.6,0.6-6.8,0.8-7.6c0,0,0,0,0,0c0.1-0.5,0.4-0.9,0.8-1.1
			c-2.8-1.8-5.2-2.8-5.6-3c-0.3-0.1-0.4-0.2-0.4-0.2h0l0,0C10.2,4.2,10.1,4.2,10,4.2"/>
			<path class="st0" d="M33.6,8.4c-0.1,0-0.1,0-0.2,0.1c0,0-0.1,0.1-0.2,0.2C33,8.8,32.8,9,32.4,9.3c-0.4,0.4-1.3,1.2-2.2,2.2
			c-1.6,1.7-3.6,4.5-4.6,7.7c-0.6,1.8-0.8,3.5-0.8,4.8c0,1,0.1,1.8,0.5,2.5c0.3,0.6,0.8,1.1,1.4,1.4c0.3,0.1,0.6,0.2,1,0.2h0
			c1.9,0,5.1-1.6,6.1-5.1c0.6-1.9,0.9-4.1,0.9-6.6c0-3.1-0.5-5.8-0.6-6.9C34,9,33.9,8.8,33.9,8.8C33.9,8.6,33.8,8.4,33.6,8.4"/>
			<path class="st0" d="M16.9,8.4c-0.2,0-0.3,0.2-0.3,0.4c0,0,0,0.2-0.1,0.6c-0.1,0.3-0.2,0.8-0.3,1.6c-0.2,1.2-0.4,3.1-0.4,5.3
			c0,2.6,0.3,4.8,0.9,6.6c1.1,3.5,4.4,5.1,6.3,5.1h0c0.4,0,0.8-0.1,1.1-0.2c0.2-0.1,0.3-0.1,0.5-0.3c-0.1-0.2-0.3-0.4-0.4-0.7
			c-0.4-0.8-0.6-1.7-0.6-2.9c0-1.5,0.3-3.2,0.9-5.1c0.1-0.2,0.1-0.4,0.2-0.5c0-0.1,0-0.1,0.1-0.2c-2.1-5.1-6.8-9-7.3-9.4
			c-0.2-0.1-0.3-0.2-0.3-0.2C17.1,8.4,17,8.4,16.9,8.4"/>
			<path class="st0" d="M25.3,0c-0.1,0-0.2,0.1-0.4,0.3c0,0-0.1,0.1-0.3,0.4c-0.2,0.4-0.5,0.8-0.7,1.2c-0.5,0.9-1.3,2.4-2.1,4.2
			c-0.5,1.2-1,2.5-1.5,3.9c1.5,1.5,3.6,3.9,5,6.8c1.1-2.3,2.7-4.5,4.8-6.8c-1.4-4.4-3.5-8-4.3-9.3c-0.2-0.3-0.3-0.4-0.3-0.4
			C25.4,0,25.3,0,25.3,0"/>
			<path class="st0" d="M40.5,4.2c-0.1,0-0.2,0-0.3,0.1l0,0h0c0,0-0.2,0.1-0.4,0.2c-0.3,0.1-0.6,0.3-1.1,0.5L38.5,5
			c-1.4,0.7-2.7,1.4-4,2.2c-0.1,0.1-0.3,0.2-0.4,0.3c0.4,0.2,0.7,0.6,0.8,1.1c0,0,0,0,0,0c0.2,0.9,0.8,4,0.8,7.6c0,2.6-0.3,5-0.9,7
			c-0.7,2.1-1.9,3.4-2.9,4.2c2.7-0.1,5.1-1.8,6.8-4.8c2.2-3.9,2.7-9.1,2.7-12.7c0-1.3-0.1-2.6-0.2-3.8c-0.1-0.9-0.2-1.5-0.2-1.5
			C41,4.4,40.8,4.2,40.5,4.2"/>
			<path class="st0" d="M33.1,1.1c0,0-0.1,0-0.1,0h0h0c-0.1,0-0.2,0-0.3,0.1l0,0l0,0c0,0-0.6,0.4-1.5,1c-0.5,0.4-1.3,1-2.3,1.8
			c0.7,1.5,1.3,3,1.9,4.5c1.2-0.9,2.4-1.8,3.9-2.7c-0.4-2.1-0.9-3.6-1.1-4.2c0,0,0,0,0,0C33.5,1.3,33.3,1.1,33.1,1.1"/>
			<path class="st0" d="M17.5,1.1c-0.3,0-0.4,0.2-0.6,0.5c0,0,0,0,0,0c-0.2,0.6-0.7,2.1-1.1,4.2c1.5,0.9,2.7,1.8,3.9,2.7
			c0.5-1.5,1.2-3,1.9-4.5c-0.8-0.6-1.5-1.2-2.3-1.8c-0.9-0.7-1.5-1-1.5-1l0,0l0,0c-0.1-0.1-0.2-0.1-0.3-0.1h0h0
			C17.5,1.1,17.5,1.1,17.5,1.1"/>
			<path class="st0" d="M4.4,10.9c-0.8,0-1.2,0-1.2,0c-0.3,0-0.6,0.2-0.8,0.5c-0.1,0.2-0.2,0.4-0.2,0.6c0.1,0.5,0.4,2.5,2.8,5.5
			c1.2-0.6,2.4-1.1,3.5-1.6c-0.2-1.5-0.4-3.1-0.4-4.8c-1.4-0.1-2.6-0.2-3.3-0.2C4.6,10.9,4.5,10.9,4.4,10.9"/>
			<path class="st0" d="M46.1,10.9c-0.1,0-0.3,0-0.4,0c-0.7,0-1.8,0-3.3,0.2c0,1.6-0.2,3.2-0.4,4.8c1.2,0.4,2.3,1,3.5,1.6
			c2.3-3,2.7-4.9,2.8-5.5c0-0.2-0.1-0.5-0.2-0.6c-0.2-0.3-0.5-0.4-0.8-0.5C47.4,10.9,46.9,10.9,46.1,10.9"/>
			<path class="st0" d="M41.8,16.9c-0.5,2.4-1.2,4.5-2.2,6.3c-1,1.8-2.3,3.2-3.9,4.1c11.1-0.6,14.3-4.2,14.6-4.6l0,0
			c0.1-0.2,0.2-0.4,0.2-0.6c0-0.3-0.2-0.6-0.4-0.8c0,0-0.1-0.1-0.4-0.2l0,0l0,0c-0.2-0.1-0.4-0.3-0.8-0.5c-0.1-0.1-0.2-0.1-0.3-0.2
			c-0.8-0.5-2.1-1.3-3.7-2.1C44,17.8,42.9,17.3,41.8,16.9"/>
			<path class="st0" d="M8.7,16.9c-3.8,1.4-6.8,3.4-7.9,4.2c-0.2,0.2-0.4,0.2-0.4,0.3C0.2,21.6,0,21.9,0,22.2c0,0.2,0.1,0.4,0.2,0.5
			c0,0,0,0,0,0c0,0,0,0.1,0.1,0.1c0,0,0,0,0,0.1c0.1,0.1,0.3,0.3,0.5,0.5c0.5,0.4,1.3,1,2.7,1.6c2.8,1.3,6.7,2.1,11.3,2.3
			c-1.5-0.9-2.9-2.3-3.9-4.1C9.9,21.5,9.1,19.4,8.7,16.9"/>
			<path class="st0" d="M40.4,28.2c-0.6,0-1.4,0.1-2.7,0.3c-0.2,0-0.4,0.1-0.6,0.1c-0.6,0.1-1.2,0.1-2.1,0.1c-0.6,0-1.1,0-1.7,0
			l-0.1,0c-0.6,0-1.2,0-1.9,0c-1.4,0-3.1,0.1-4.7,0.5c-0.1,0-0.1,0.1-0.1,0.2c0,0.1,0.1,0.1,0.2,0.1c0,0,0,0,0.1,0
			c0.6-0.1,1.2-0.1,1.8-0.1c2,0,3.4,0.3,4.8,0.7c1.3,0.3,2.5,0.6,4.1,0.6c1.8,0,3.2-0.4,3.7-1c0.2-0.2,0.3-0.4,0.3-0.7
			C41.4,28.4,41.2,28.2,40.4,28.2"/>
			<path class="st0" d="M10.1,28.2c-0.8,0-0.9,0.2-1,0.7c0,0.2,0.1,0.5,0.2,0.7c0.6,0.6,2,1,3.7,1c1.7,0,2.8-0.3,4.1-0.6
			c1.3-0.3,2.7-0.7,4.8-0.7c0.6,0,1.2,0,1.8,0.1c0,0,0.1,0,0.1,0c0.1,0,0.2,0,0.2-0.1c0-0.1,0-0.1-0.1-0.2c-1.6-0.4-3.3-0.5-4.7-0.5
			h0c-0.7,0-1.3,0-1.9,0l-0.1,0c-0.6,0-1.2,0-1.7,0c-0.9,0-1.6,0-2.1-0.1c-0.2,0-0.4-0.1-0.6-0.1C11.5,28.3,10.6,28.2,10.1,28.2"/>
		</g>
		<polygon class="st0" points="68.8,23.8 64.5,23.8 64.5,21.5 75.5,21.5 75.5,23.8 71.2,23.8 71.2,35.1 68.8,35.1 	"/>
		<g>
			<path class="st0" d="M75.6,24.9H78v2.3c0.6-1.5,1.8-2.6,3.6-2.5v2.5h-0.1c-2.1,0-3.5,1.3-3.5,4.1v3.9h-2.3V24.9z"/>
			<path class="st0" d="M81.7,32.2L81.7,32.2c0-2.2,1.7-3.3,4.2-3.3c1.1,0,2,0.2,2.8,0.4V29c0-1.5-0.9-2.2-2.5-2.2
			c-1.1,0-2,0.3-2.9,0.6l-0.6-1.8c1.1-0.5,2.2-0.8,3.9-0.8c1.5,0,2.7,0.4,3.4,1.1c0.8,0.7,1.1,1.8,1.1,3.2v6.1h-2.3v-1.3
			c-0.7,0.8-1.8,1.5-3.3,1.5C83.4,35.3,81.7,34.2,81.7,32.2 M88.7,31.4v-0.7c-0.6-0.2-1.4-0.4-2.3-0.4c-1.5,0-2.4,0.6-2.4,1.7v0
			c0,1,0.9,1.6,2,1.6C87.5,33.6,88.7,32.7,88.7,31.4"/>
			<path class="st0" d="M92.9,24.9h2.3v1.6c0.7-1,1.6-1.8,3.2-1.8c2.3,0,3.6,1.6,3.6,3.9v6.5h-2.3v-5.8c0-1.6-0.8-2.5-2.2-2.5
			c-1.4,0-2.3,0.9-2.3,2.5v5.8h-2.3V24.9z"/>
			<path class="st0" d="M103.3,33.8l1-1.6c1.1,0.8,2.3,1.3,3.4,1.3c1,0,1.6-0.4,1.6-1.1v0c0-0.8-1.1-1.1-2.3-1.4
			c-1.5-0.4-3.2-1-3.2-3v0c0-1.9,1.6-3.1,3.6-3.1c1.3,0,2.7,0.4,3.8,1.2l-0.9,1.7c-1-0.6-2-1-2.9-1c-0.9,0-1.4,0.4-1.4,1v0
			c0,0.8,1.1,1.1,2.3,1.5c1.5,0.5,3.2,1.1,3.2,3v0c0,2.1-1.7,3.2-3.8,3.2C106.2,35.3,104.6,34.8,103.3,33.8"/>
			<path class="st0" d="M113.1,24.9h2.3v1.7c0.8-1.1,1.8-1.9,3.5-1.9c2.4,0,4.7,1.9,4.7,5.3v0c0,3.4-2.3,5.3-4.7,5.3
			c-1.7,0-2.8-0.9-3.5-1.8v4.7h-2.3V24.9z M121.3,30L121.3,30c0-2-1.3-3.3-2.9-3.3c-1.6,0-3,1.3-3,3.3v0c0,2,1.4,3.3,3,3.3
			C119.9,33.3,121.3,32,121.3,30"/>
			<path class="st0" d="M124.7,30.1L124.7,30.1c0-3,2.3-5.4,5.5-5.4c3.1,0,5.4,2.4,5.4,5.3v0c0,2.9-2.3,5.3-5.5,5.3
			C127,35.3,124.7,33,124.7,30.1 M133.3,30.1L133.3,30.1c0-1.8-1.3-3.3-3.1-3.3c-1.9,0-3.1,1.5-3.1,3.3v0c0,1.8,1.3,3.3,3.1,3.3
			C132.1,33.3,133.3,31.8,133.3,30.1"/>
			<path class="st0" d="M137.2,24.9h2.3v2.3c0.6-1.5,1.8-2.6,3.6-2.5v2.5H143c-2.1,0-3.5,1.3-3.5,4.1v3.9h-2.3V24.9z"/>
			<path class="st0" d="M144.9,32.3v-5.4h-1.3v-2h1.3v-2.8h2.3v2.8h2.8v2h-2.8v5c0,0.9,0.5,1.3,1.3,1.3c0.5,0,1-0.1,1.5-0.3v1.9
			c-0.6,0.3-1.2,0.5-2.1,0.5C146.1,35.3,144.9,34.5,144.9,32.3"/>
			<path class="st0" d="M65.8,46.3h-1.3v-2h1.3v-0.8c0-1.1,0.3-2,0.8-2.5c0.5-0.5,1.3-0.8,2.3-0.8c0.8,0,1.4,0.1,1.9,0.3v2
			c-0.5-0.2-0.9-0.3-1.4-0.3c-0.9,0-1.4,0.5-1.4,1.6v0.6h2.7v1.9h-2.7v8.2h-2.3V46.3z"/>
			<path class="st0" d="M70.8,49.4L70.8,49.4c0-3,2.3-5.4,5.5-5.4c3.1,0,5.4,2.4,5.4,5.3v0c0,2.9-2.3,5.3-5.5,5.3
			C73.1,54.7,70.8,52.3,70.8,49.4 M79.4,49.4L79.4,49.4c0-1.8-1.3-3.3-3.1-3.3c-1.9,0-3.1,1.5-3.1,3.3v0c0,1.8,1.3,3.3,3.1,3.3
			C78.2,52.7,79.4,51.2,79.4,49.4"/>
			<path class="st0" d="M83.1,44.3h2.3v2.3c0.6-1.5,1.8-2.6,3.6-2.5v2.5H89c-2.1,0-3.5,1.3-3.5,4.1v3.9h-2.3V44.3z"/>
		</g>
		<polygon class="st0" points="95.5,40.9 97.7,40.9 104.9,50.3 104.9,40.9 107.3,40.9 107.3,54.5 105.3,54.5 97.8,44.8 97.8,54.5 
		95.5,54.5 	"/>
		<g>
			<path class="st0" d="M108.7,52.5l1.4-1.7c1.3,1.1,2.6,1.8,4.3,1.8c1.5,0,2.4-0.7,2.4-1.7v0c0-1-0.5-1.5-3.1-2.1
			c-2.9-0.7-4.5-1.6-4.5-4.1v0c0-2.3,1.9-3.9,4.6-3.9c2,0,3.5,0.6,4.9,1.7l-1.3,1.8c-1.2-0.9-2.4-1.4-3.7-1.4
			c-1.4,0-2.2,0.7-2.2,1.6v0c0,1,0.6,1.5,3.2,2.1c2.9,0.7,4.3,1.7,4.3,4v0c0,2.5-2,4-4.8,4C112.3,54.7,110.3,54,108.7,52.5"/>
		</g>
		<polygon class="st0" points="119.3,40.9 121.9,40.9 125.1,51 128.5,40.9 130.5,40.9 133.8,51 137,40.9 139.6,40.9 134.8,54.6 
		132.8,54.6 129.4,44.8 126.1,54.6 124,54.6 	"/>
	</g>
</svg>
