<svg xmlns="http://www.w3.org/2000/svg" viewBox="0 0 23.749 17.498"><g transform="translate(-1085.683 268.241)"><g transform="translate(1085.683 -268.241)"><path d="M1085.683-249.023l5.259-1.7.6-9.533-4.634,1.681Z" transform="translate(-1085.683 266.521)" /><path d="M1094.664-250.7l4.634,1.681V-258.6l-4.01-1.657Z" transform="translate(-1088.073 266.521)" /><path d="M1106.266-256.031l-1.536-3.025-1.945.816v9.581l4.61-1.681-.336-4.97A1.549,1.549,0,0,1,1106.266-256.031Z" transform="translate(-1090.235 266.157)" /><path d="M1114.734-258.174l-2.065-.745c-.672,1.3-1.44,2.81-1.488,2.906a1.45,1.45,0,0,1-.793.72l.313,4.971,5.258,1.7Z" transform="translate(-1092.21 266.115)" /><path d="M1111.064-266.562a3.023,3.023,0,0,0-4.083-1.345,3.058,3.058,0,0,0-1.345,4.082c.745,1.44,2.329,4.538,2.329,4.538a.437.437,0,0,0,.793,0s1.9-3.674,2.329-4.538A3.13,3.13,0,0,0,1111.064-266.562Zm-2.713,2.881a1.445,1.445,0,0,1-1.441-1.44,1.445,1.445,0,0,1,1.441-1.441,1.445,1.445,0,0,1,1.441,1.441A1.445,1.445,0,0,1,1108.351-263.681Z" transform="translate(-1090.677 268.241)" /></g></g></svg>