<svg xmlns="http://www.w3.org/2000/svg" viewBox="0 0 20.124 23.717"><g transform="translate(502.714 332.067)"><path d="M-448.95-184.571h0a2.61,2.61,0,0,0,2.61-2.61h-5.219A2.61,2.61,0,0,0-448.95-184.571Z" transform="translate(-43.702 -123.779)" /><path d="M-482.807-313.274l-2.323-2.588v-5.706s.538-6.8-5.6-7.963v-.619a1.92,1.92,0,0,0-1.923-1.917,1.92,1.92,0,0,0-1.917,1.917v.619c-6.131,1.163-5.6,7.963-5.6,7.963v5.706l-2.323,2.588a.739.739,0,0,0,0,1.046.74.74,0,0,0,.523.217h18.645a.74.74,0,0,0,.74-.74.74.74,0,0,0-.216-.523Zm-8.975-2.947h-1.741v-1.74h1.741Zm0-3.288h-1.741v-4.69h1.741Z" /></g></svg>