<svg xmlns="http://www.w3.org/2000/svg" viewBox="0 0 35 35">
<g fill="#ffffff">
<circle cx="17.5" cy="17.5" r="16" fill="#002664"/></g>
<g transform="translate(7.991 9.615)"><path d="M156.5,303.873a3.022,3.022,0,1,0,3.022,3.021A3.022,3.022,0,0,0,156.5,303.873Zm7.951-3.837h-3.421l-.435-1.359c-.212-.692-.579-.793-1.322-.793h-5.547c-.743,0-1.109.1-1.322.793l-.435,1.359h-3.421a1.344,1.344,0,0,0-1.345,1.345v10.556a1.345,1.345,0,0,0,1.345,1.345h15.9a1.345,1.345,0,0,0,1.345-1.345V301.381A1.344,1.344,0,0,0,164.448,300.037ZM156.5,311.366a4.471,4.471,0,1,1,4.471-4.471A4.471,4.471,0,0,1,156.5,311.366Z" transform="translate(-147.202 -297.885)" fill="#fff" stroke="rgba(0,0,0,0)" stroke-width="1"/></g></svg>