<svg xmlns="http://www.w3.org/2000/svg" viewBox="0 0 16.109 13.095"><path d="M251.226,157.217a3.263,3.263,0,0,1,2.348.973.165.165,0,0,0,.115.057h.038a7.284,7.284,0,0,0,1.756-.648c.019-.019.21-.115.248-.134a3.382,3.382,0,0,1-1.431,1.813,7.32,7.32,0,0,0,.935-.172,6.833,6.833,0,0,0,.936-.325,5.443,5.443,0,0,1-.477.63,7.085,7.085,0,0,1-1.107,1.031.136.136,0,0,0-.057.115v.572h0a9.713,9.713,0,0,1-2.329,6.051,8.8,8.8,0,0,1-4.486,2.825,10.374,10.374,0,0,1-1.679.305h-1.6a6.242,6.242,0,0,1-1.336-.172,9.383,9.383,0,0,1-2.978-1.2l-.057-.057c.248.019.477.038.726.038a6.628,6.628,0,0,0,1.832-.248,6.2,6.2,0,0,0,2.29-1.165,3.375,3.375,0,0,1-3.073-2.291,3.084,3.084,0,0,0,.592.038,3.466,3.466,0,0,0,.878-.115,3.322,3.322,0,0,1-1.89-1.184,3.243,3.243,0,0,1-.725-2.119,3.083,3.083,0,0,0,1.469.4,3.335,3.335,0,0,1-.993-4.409.958.958,0,0,1,.134.153,9.318,9.318,0,0,0,5.231,3.111,10.987,10.987,0,0,0,1.355.191h.076c.038,0,.038-.019.038-.076a3.4,3.4,0,0,1-.057-.878,3.191,3.191,0,0,1,1.146-2.31,3.011,3.011,0,0,1,1.794-.782c.076,0,.21-.019.344-.019m4.943,1.565h0" transform="translate(-240.06 -157.217)" /></svg>